<svg xmlns="http://www.w3.org/2000/svg" viewBox="0 0 100 125" x="0px" y="0px"><defs><style>.cls-1{stroke-width:0px;}</style></defs><path class="cls-1" d="M89.78,48.04c-16.05-10.58-29.31-25.42-37.36-41.79-.42-.86-1.3-1.41-2.26-1.41s-1.84.55-2.26,1.41c-8.05,16.37-21.31,31.21-37.36,41.79-.69.46-1.12,1.22-1.13,2.05-.02.83.37,1.61,1.05,2.1,13.88,10.02,27.57,25.34,37.55,42.04.46.76,1.28,1.23,2.17,1.23s1.71-.47,2.17-1.23c9.98-16.7,23.67-32.02,37.55-42.04.67-.49,1.06-1.27,1.05-2.1s-.44-1.6-1.13-2.05ZM50.15,88.12c-12.12-19.16-25.45-31.34-33.9-37.88,14.07-9.92,25.9-23,33.9-37.44,8,14.44,19.83,27.52,33.9,37.44-8.45,6.53-21.78,18.72-33.9,37.88ZM67.75,49.94c-.48.76-1.3,1.18-2.13,1.18-.46,0-.93-.13-1.35-.39-8.18-5.17-13.18-13.4-13.39-13.75-.72-1.19-.33-2.74.87-3.46,1.19-.72,2.74-.33,3.46.86.04.07,4.61,7.56,11.76,12.08,1.18.74,1.53,2.3.79,3.48Z"/><text x="0" y="115" fill="#000000" font-size="5px" font-weight="bold" font-family="'Helvetica Neue', Helvetica, Arial-Unicode, Arial, Sans-serif">Created by Kyle Knapp</text><text x="0" y="120" fill="#000000" font-size="5px" font-weight="bold" font-family="'Helvetica Neue', Helvetica, Arial-Unicode, Arial, Sans-serif">from the Noun Project</text></svg>